<?xml version="1.0" encoding="UTF-8" standalone="no"?>
<!-- Created with Inkscape (http://www.inkscape.org/) -->

<svg
   width="128"
   height="128"
   viewBox="0 0 33.866667 33.866666"
   version="1.1"
   id="svg5"
   inkscape:version="1.2.1 (9c6d41e410, 2022-07-14)"
   sodipodi:docname="buffer-pool.svg"
   xml:space="preserve"
   inkscape:export-filename="buffer-pool.png"
   inkscape:export-xdpi="96"
   inkscape:export-ydpi="96"
   xmlns:inkscape="http://www.inkscape.org/namespaces/inkscape"
   xmlns:sodipodi="http://sodipodi.sourceforge.net/DTD/sodipodi-0.dtd"
   xmlns="http://www.w3.org/2000/svg"
   xmlns:svg="http://www.w3.org/2000/svg"><sodipodi:namedview
     id="namedview7"
     pagecolor="#ffffff"
     bordercolor="#666666"
     borderopacity="1.0"
     inkscape:showpageshadow="2"
     inkscape:pageopacity="0.0"
     inkscape:pagecheckerboard="0"
     inkscape:deskcolor="#d1d1d1"
     inkscape:document-units="mm"
     showgrid="false"
     inkscape:zoom="2.5247522"
     inkscape:cx="-86.345107"
     inkscape:cy="-2.7725493"
     inkscape:window-width="3440"
     inkscape:window-height="1369"
     inkscape:window-x="1912"
     inkscape:window-y="-8"
     inkscape:window-maximized="1"
     inkscape:current-layer="layer1" /><defs
     id="defs2"><inkscape:path-effect
       effect="perspective-envelope"
       up_left_point="63.542267,12.171913"
       up_right_point="67.380482,12.577997"
       down_left_point="63.542267,16.285974"
       down_right_point="68.297445,16.364571"
       id="path-effect2664"
       is_visible="true"
       lpeversion="1"
       deform_type="perspective"
       horizontal_mirror="false"
       vertical_mirror="false"
       overflow_perspective="false" /><inkscape:path-effect
       effect="perspective-envelope"
       up_left_point="63.542267,12.171913"
       up_right_point="67.380482,12.577997"
       down_left_point="63.542267,16.285974"
       down_right_point="68.297445,16.364571"
       id="path-effect2630"
       is_visible="true"
       lpeversion="1"
       deform_type="perspective"
       horizontal_mirror="false"
       vertical_mirror="false"
       overflow_perspective="false" /><inkscape:path-effect
       effect="envelope"
       id="path-effect2151"
       is_visible="true"
       lpeversion="1"
       yy="true"
       xx="true"
       bendpath1="m -49.286781,45.598672 h 29.086565"
       bendpath2="m -20.200216,45.598672 c -0.515351,3.774397 -0.462141,8.036132 0,12.648379"
       bendpath3="m -49.286781,58.247051 h 29.086565"
       bendpath4="m -49.286781,45.598672 c -0.645468,4.072689 -0.611897,8.296276 0,12.648379"
       bendpath2-nodetypes="cc"
       bendpath4-nodetypes="cc" /><inkscape:path-effect
       effect="perspective-envelope"
       up_left_point="-49.520975,45.458467"
       up_right_point="-20.200214,47.23691"
       down_left_point="-49.224568,58.247056"
       down_right_point="-20.200214,58.247056"
       id="path-effect2147"
       is_visible="true"
       lpeversion="1"
       deform_type="perspective"
       horizontal_mirror="false"
       vertical_mirror="false"
       overflow_perspective="false" /><inkscape:path-effect
       effect="perspective-envelope"
       up_left_point="100.35373,-13.985618"
       up_right_point="133.21541,-10.132325"
       down_left_point="93.165854,57.260803"
       down_right_point="126.39804,56.964396"
       id="path-effect2057"
       is_visible="true"
       lpeversion="1"
       deform_type="perspective"
       horizontal_mirror="false"
       vertical_mirror="false"
       overflow_perspective="false" /><inkscape:path-effect
       effect="envelope"
       id="path-effect2027"
       is_visible="true"
       lpeversion="1"
       yy="true"
       xx="true"
       bendpath1="M 93.056057,-13.776401 H 133.17045"
       bendpath2="M 133.17045,-13.776401 V 57.55721"
       bendpath3="M 93.056057,57.55721 H 133.17045"
       bendpath4="M 93.056057,-13.776401 V 57.55721" /><inkscape:path-effect
       effect="lattice2"
       gridpoint0="93.056057,-13.776401"
       gridpoint1="133.17045,-13.776401"
       gridpoint2="93.056057,57.55721"
       gridpoint3="133.17045,57.55721"
       gridpoint4="103.08466,-13.776401"
       gridpoint5="123.14185,-13.776401"
       gridpoint6="103.08466,57.55721"
       gridpoint7="123.14185,57.55721"
       gridpoint8x9="113.11325,-13.776401"
       gridpoint10x11="113.11325,57.55721"
       gridpoint12="93.056057,4.0570018"
       gridpoint13="133.17045,4.0570018"
       gridpoint14="93.056057,39.723807"
       gridpoint15="133.17045,39.723807"
       gridpoint16="103.08466,4.0570018"
       gridpoint17="123.14185,4.0570018"
       gridpoint18="103.08466,39.723807"
       gridpoint19="123.14185,39.723807"
       gridpoint20x21="113.11325,4.0570018"
       gridpoint22x23="113.11325,39.723807"
       gridpoint24x26="93.056057,21.890404"
       gridpoint25x27="133.17045,21.890404"
       gridpoint28x30="103.08466,21.890404"
       gridpoint29x31="123.14185,21.890404"
       gridpoint32x33x34x35="113.11325,21.890404"
       id="path-effect2025"
       is_visible="true"
       lpeversion="1"
       horizontal_mirror="false"
       vertical_mirror="false"
       perimetral="true"
       live_update="true" /><inkscape:path-effect
       effect="perspective-envelope"
       up_left_point="93.056057,-13.776401"
       up_right_point="133.17045,-13.776401"
       down_left_point="93.056057,57.55721"
       down_right_point="133.17045,57.55721"
       id="path-effect2021"
       is_visible="true"
       lpeversion="1"
       deform_type="perspective"
       horizontal_mirror="false"
       vertical_mirror="false"
       overflow_perspective="false" /><inkscape:path-effect
       effect="perspective-envelope"
       up_left_point="100.12977,-13.776401"
       up_right_point="133.17045,-9.9459799"
       down_left_point="93.056057,57.55721"
       down_right_point="126.57141,56.82364"
       id="path-effect2019"
       is_visible="true"
       lpeversion="1"
       deform_type="perspective"
       horizontal_mirror="false"
       vertical_mirror="false"
       overflow_perspective="false" /><inkscape:path-effect
       effect="fillet_chamfer"
       id="path-effect1621"
       is_visible="true"
       lpeversion="1"
       nodesatellites_param="C,0,0,1,0,0.79375,0,6 @ C,0,0,1,0,0.79375,0,6 @ C,0,0,1,0,0.79375,0,6 @ C,0,0,1,0,0.79375,0,6 @ C,0,0,1,0,0.79375,0,6"
       unit="px"
       method="auto"
       mode="F"
       radius="3"
       chamfer_steps="6"
       flexible="false"
       use_knot_distance="true"
       apply_no_radius="true"
       apply_with_radius="true"
       only_selected="false"
       hide_knots="false" /><inkscape:path-effect
       effect="fillet_chamfer"
       id="path-effect1621-7"
       is_visible="true"
       lpeversion="1"
       nodesatellites_param="C,0,0,1,0,0.79375,0,6 @ C,0,0,1,0,0.79375,0,6 @ C,0,0,1,0,0.79375,0,6 @ C,0,0,1,0,0.79375,0,6 @ C,0,0,1,0,0.79375,0,6"
       unit="px"
       method="auto"
       mode="F"
       radius="3"
       chamfer_steps="6"
       flexible="false"
       use_knot_distance="true"
       apply_no_radius="true"
       apply_with_radius="true"
       only_selected="false"
       hide_knots="false" /><inkscape:path-effect
       effect="fillet_chamfer"
       id="path-effect1621-5"
       is_visible="true"
       lpeversion="1"
       nodesatellites_param="C,0,0,1,0,0.79375,0,6 @ C,0,0,1,0,0.79375,0,6 @ C,0,0,1,0,0.79375,0,6 @ C,0,0,1,0,0.79375,0,6 @ C,0,0,1,0,0.79375,0,6"
       unit="px"
       method="auto"
       mode="F"
       radius="3"
       chamfer_steps="6"
       flexible="false"
       use_knot_distance="true"
       apply_no_radius="true"
       apply_with_radius="true"
       only_selected="false"
       hide_knots="false" /><inkscape:path-effect
       effect="perspective-envelope"
       up_left_point="100.35373,-13.985618"
       up_right_point="133.21541,-10.132325"
       down_left_point="93.165854,57.260803"
       down_right_point="126.39804,56.964396"
       id="path-effect2057-0"
       is_visible="true"
       lpeversion="1"
       deform_type="perspective"
       horizontal_mirror="false"
       vertical_mirror="false"
       overflow_perspective="false" /></defs><g
     inkscape:label="Layer 1"
     inkscape:groupmode="layer"
     id="layer1"><g
       id="g2680"
       transform="translate(-81.906367,-11.797409)"><g
         id="g2909-0-4-7-0-0-3-6"
         transform="translate(-19.16034,20.556673)"><path
           id="path349-2-5-6-4-8-1-7-8-7-0-7-0-6"
           style="fill:#0089ab;fill-opacity:1;stroke:#0089ab;stroke-width:0.0664867;stroke-linecap:round;stroke-linejoin:round;stroke-dasharray:none;stroke-opacity:1;paint-order:markers fill stroke;stop-color:#000000"
           d="m 103.62558,16.473168 a 2.5325922,2.5325922 0 0 0 0.89286,0.944819 l 12.21471,7.052423 a 2.5325952,2.5325952 0 0 0 2.53249,-1.75e-4 l 12.21449,-7.052038 a 2.5325952,2.5325952 0 0 0 1.2664,-2.193114 L 132.74631,1.120619 A 2.5325922,2.5325922 0 0 0 132.40788,-0.1443 Z" /><path
           id="path349-2-5-6-0-0-4-1-2-8-2-3-8-2-3-7"
           style="fill:#0098be;fill-opacity:1;stroke:#0098be;stroke-width:0.0664867;stroke-linecap:round;stroke-linejoin:round;stroke-dasharray:none;stroke-opacity:1;paint-order:markers fill stroke;stop-color:#000000"
           d="m 119.26564,-8.122093 a 2.5325952,2.5325952 0 0 0 -2.53249,-1.81e-4 l -12.21471,7.052428 a 2.5325922,2.5325922 0 0 0 -0.89286,0.944819 l 28.7823,16.617472 a 2.5325922,2.5325922 0 0 0 0.33843,-1.26492 l 2.2e-4,-14.104467 a 2.5325952,2.5325952 0 0 0 -1.2664,-2.193111 z" /><path
           id="path349-2-5-6-0-0-4-2-9-4-1-5-1-6-3"
           style="fill:#00aad4;fill-opacity:1;stroke:#00aad4;stroke-width:0.0664867;stroke-linecap:round;stroke-linejoin:round;stroke-dasharray:none;stroke-opacity:1;paint-order:markers fill stroke;stop-color:#000000"
           d="m 104.51995,-1.070054 a 2.5325952,2.5325952 0 0 0 -1.2664,2.193112 l 2.2e-4,14.104464 a 2.5325922,2.5325922 0 0 0 0.37181,1.245645 l 28.7823,-16.617469 a 2.5325922,2.5325922 0 0 0 -0.92624,-0.925545 l -12.21471,-7.052424 a 2.5325952,2.5325952 0 0 0 -2.53249,1.78e-4 z" /></g><g
         id="g4033"
         transform="matrix(1.0137193,0,0,1.0137193,-18.229526,4.5716457)"><path
           style="fill:#ffffff;stroke:none;stroke-width:0.0173117"
           d="m 125.32251,25.83691 -2.16544,6.366007 -16.15057,-1.861996 -0.94517,2.269914 17.74791,0.600435 z"
           id="path4003" /><path
           style="fill:#ffffff;stroke:none;stroke-width:0.0173117"
           d="m 125.31351,24.442526 -3.04844,5.99341 -15.92322,-3.401141 -1.25808,2.112716 17.68324,2.378859 z"
           id="path4001" /><path
           style="fill:#ffffff;stroke:none;stroke-width:0.0173117"
           d="m 109.55694,18.350123 -4.87462,7.363416 17.09375,3.977698 3.53943,-6.529672 -4.01699,5.428294 -13.40956,-4.191109 2.37256,-4.258581 c -0.33559,-0.607907 -0.44005,-1.013864 -0.70457,-1.790046 z"
           id="path3999"
           sodipodi:nodetypes="cccccccc" /><path
           id="path2468-81"
           style="fill:#ffffff;stroke:none;stroke-width:0.0173117"
           d="m 116.21306,9.7549601 c -2.70746,2.1905449 -3.5648,2.8811529 -6.24044,5.3779659 0.23833,5.945969 5.49324,11.800881 11.01741,12.440068 2.0501,-2.505628 3.13228,-3.73692 5.29735,-6.201172 -2.77584,-0.109917 -9.2692,-3.761269 -10.07432,-11.6168619 z m -0.62476,2.4995889 c 1.48753,6.503869 5.9712,8.676225 9.28625,9.727055 0,0 -2.23013,2.174748 -4.32325,4.231783 -4.04151,-1.056419 -8.08079,-5.4855 -8.44083,-10.469128 1.95414,-1.944625 1.67903,-1.689663 3.47783,-3.48971 z"
           sodipodi:nodetypes="cccccccccc" /></g><path
         id="rect1244"
         style="fill:#ffffff;fill-opacity:1;stroke-width:0.132714;stroke-linecap:square;paint-order:markers fill stroke;stop-color:#000000"
         d="m 101.20848,23.298915 -0.13303,0.101002 c 0.0426,0.06407 0.0621,0.132617 0.0582,0.205974 -0.004,0.07356 -0.0462,0.141489 -0.12586,0.204259 l -0.0258,0.02053 0.1599,0.164837 0.23944,-0.194364 0.84455,0.857087 0.17372,-0.165586 z m -0.71436,0.576282 c -0.0521,0.01479 -0.10269,0.04076 -0.15182,0.07804 -0.009,0.0065 -0.0168,0.01314 -0.0247,0.02005 -0.008,0.007 -0.0154,0.01427 -0.0226,0.02163 -0.005,0.0049 -0.009,0.0099 -0.0137,0.01498 -0.0178,0.02041 -0.0332,0.0426 -0.046,0.06601 -0.0251,0.04672 -0.0395,0.09617 -0.0431,0.14886 -0.003,0.05265 0.005,0.106894 0.0266,0.162729 0.0212,0.0551 0.0561,0.109023 0.10463,0.161832 l 0.6254,0.680364 c 0.0512,0.05569 0.10632,0.09902 0.16501,0.129679 0.0587,0.02945 0.11792,0.04748 0.1775,0.05348 0.0599,0.0055 0.11742,-7.51e-4 0.1727,-0.01868 0.0555,-0.01832 0.1051,-0.0487 0.14849,-0.09019 0.0932,-0.08928 0.13499,-0.19096 0.12624,-0.305208 -0.009,-0.113773 -0.0647,-0.223545 -0.16677,-0.329745 l -0.60901,-0.633703 c -0.0966,-0.100531 -0.199,-0.157384 -0.30848,-0.171246 -0.0552,-0.0072 -0.10859,-0.0037 -0.16044,0.01108 z m 0.0784,0.246183 c 0.0175,-0.0052 0.0363,-0.0075 0.0567,-0.0065 0.0401,0.0012 0.0781,0.02063 0.11383,0.05834 l 0.64881,0.684633 c 0.0377,0.03979 0.0584,0.08294 0.0611,0.12921 0.003,0.04608 -0.01,0.08182 -0.0373,0.107553 -0.03,0.02776 -0.0671,0.04042 -0.11234,0.03709 -0.0453,-0.0034 -0.0875,-0.02575 -0.1256,-0.06659 l -0.66043,-0.708038 c -0.0361,-0.03867 -0.0515,-0.0773 -0.0465,-0.115606 0.003,-0.02907 0.0141,-0.05402 0.0324,-0.07501 0.006,-0.0069 0.0132,-0.01383 0.021,-0.01984 0.0147,-0.01153 0.0308,-0.01993 0.0484,-0.02515 z m -0.935746,0.370473 -0.170232,0.129235 c 0.04257,0.07683 0.05724,0.160215 0.04346,0.250608 -0.0145,0.09078 -0.07269,0.176793 -0.175473,0.257815 l -0.03327,0.02606 0.169985,0.196967 0.309115,-0.250944 0.903161,1.025067 0.22517,-0.214602 z m -0.92462,0.740501 c -0.06431,0.02065 -0.128232,0.05507 -0.192155,0.103571 -0.01114,0.0084 -0.02217,0.01717 -0.03258,0.02612 l 1.76e-4,3.7e-4 c -0.01042,0.009 -0.02038,0.018 -0.02994,0.02745 -0.0065,0.0063 -0.01246,0.01273 -0.01846,0.01925 -0.02419,0.02621 -0.04586,0.05418 -0.06439,0.0839 -0.03653,0.05939 -0.06083,0.121869 -0.07242,0.18784 -0.01098,0.06597 -0.0077,0.133329 0.01009,0.202309 0.01806,0.06806 0.053,0.134497 0.104397,0.198483 l 0.664841,0.82739 c 0.0547,0.06802 0.115654,0.120246 0.182703,0.156082 0.0672,0.03435 0.136177,0.05426 0.207371,0.05879 0.07169,0.0039 0.142129,-0.0072 0.211043,-0.03291 0.06917,-0.02614 0.132933,-0.06678 0.190239,-0.121683 0.122958,-0.117769 0.185261,-0.248123 0.188461,-0.391745 0.003,-0.14266 -0.0505,-0.278204 -0.159703,-0.406346 l -0.649161,-0.761264 c -0.102608,-0.120368 -0.21792,-0.186187 -0.347031,-0.198504 -0.0651,-0.0065 -0.129533,3.62e-4 -0.193507,0.02085 z m 0.06169,0.302327 c 0.02169,-0.0074 0.04457,-0.01095 0.06887,-0.01074 0.0479,-2.84e-4 0.09092,0.02212 0.128853,0.06743 l 0.691255,0.825982 c 0.0403,0.0482 0.05935,0.101644 0.05679,0.159856 -0.0019,0.05793 -0.02079,0.103897 -0.05747,0.137761 -0.03951,0.03655 -0.08651,0.05386 -0.140568,0.0518 -0.05415,-0.002 -0.101683,-0.0278 -0.142402,-0.07749 l -0.703169,-0.85836 c -0.03821,-0.04667 -0.05169,-0.09423 -0.04058,-0.142306 0.0079,-0.03644 0.02409,-0.06805 0.04893,-0.09509 0.0083,-0.0089 0.01795,-0.01741 0.02803,-0.02538 0.01922,-0.01504 0.03971,-0.02612 0.0614,-0.03354 z" /><path
         id="rect1715"
         style="fill:#ffffff;stroke-width:0.15875;stroke-linecap:square;paint-order:markers fill stroke;stop-color:#000000"
         d="m 96.346232,21.35058 2.525024,-2.118395 0.32499,0.993087 -2.451195,2.241988 z"
         sodipodi:nodetypes="ccccc" /><path
         id="rect1715-3"
         style="fill:#ffffff;stroke-width:0.15875;stroke-linecap:square;paint-order:markers fill stroke;stop-color:#000000"
         d="m 97.276871,23.687782 2.638962,-2.173156 0.645487,0.908247 -2.701699,2.237302 z"
         sodipodi:nodetypes="ccccc" /><path
         id="rect1715-9-4"
         style="fill:#ffffff;stroke-width:0.15875;stroke-linecap:square;paint-order:markers fill stroke;stop-color:#000000"
         d="m 100.2398,27.556514 2.82773,-2.314887 0.98958,0.626301 -2.68428,2.530177 z"
         sodipodi:nodetypes="ccccc" /><path
         id="rect1715-8"
         style="fill:#ffffff;stroke-width:0.15875;stroke-linecap:square;paint-order:markers fill stroke;stop-color:#000000"
         d="m 102.15757,29.05504 3.26263,-2.563777 0.97051,0.429809 -2.83023,2.936261 z"
         sodipodi:nodetypes="ccccc" /></g></g></svg>
